<?xml version="1.0" standalone="no"?>
<!DOCTYPE svg PUBLIC "-//W3C//DTD SVG 20010904//EN"
 "http://www.w3.org/TR/2001/REC-SVG-20010904/DTD/svg10.dtd">
<svg fill="#e5e7eb" version="1.0" xmlns="http://www.w3.org/2000/svg"
 width="500.000000pt" height="500.000000pt" viewBox="0 0 500.000000 500.000000"
 preserveAspectRatio="xMidYMid meet">

<g transform="translate(0.000000,500.000000) scale(0.100000,-0.100000)"
fill="#e5e7eb" stroke="none">
<path d="M1584 4263 c-32 -35 -112 -156 -125 -190 -8 -22 -5 -35 24 -82 72
-118 71 -111 30 -177 -73 -120 -75 -129 -28 -160 25 -16 27 -16 51 7 37 35
110 141 125 183 14 38 6 59 -63 177 l-22 36 30 47 c86 140 85 135 54 166 -27
27 -46 25 -76 -7z"/>
<path d="M2147 4218 c-56 -76 -97 -148 -97 -170 0 -7 20 -43 45 -80 50 -75 54
-99 24 -143 -31 -46 -69 -123 -69 -139 0 -9 14 -23 31 -31 29 -15 32 -15 51 2
26 23 88 114 117 172 27 52 24 67 -30 149 -45 69 -46 90 -6 146 63 88 72 136
32 154 -14 7 -30 12 -35 12 -6 0 -34 -33 -63 -72z"/>
<path d="M2758 4241 c-59 -66 -113 -169 -105 -201 3 -14 24 -53 47 -87 22 -34
40 -67 40 -73 0 -6 -20 -45 -45 -88 -25 -42 -45 -87 -45 -99 0 -30 42 -58 67
-44 22 11 127 162 143 205 12 31 9 39 -53 140 l-36 59 26 46 c14 25 34 58 44
73 32 44 35 83 8 102 -34 24 -43 21 -91 -33z"/>
<path d="M3297 4238 c-46 -55 -117 -166 -117 -183 0 -6 25 -48 55 -94 l55 -84
-55 -85 c-30 -47 -55 -93 -55 -103 0 -10 13 -25 29 -33 27 -14 31 -14 55 5 26
20 92 113 121 170 23 44 18 72 -25 135 -45 67 -50 104 -19 149 11 17 31 52 45
79 l25 48 -22 24 c-12 13 -28 24 -35 24 -7 0 -32 -24 -57 -52z"/>
<path d="M1975 3513 c-38 -10 -45 -24 -45 -87 0 -102 -9 -135 -38 -143 -13 -3
-41 -2 -61 3 -29 7 -41 18 -62 56 -36 69 -76 107 -144 139 -146 70 -314 5
-395 -152 -22 -41 -36 -49 -89 -49 -80 0 -117 -29 -104 -81 7 -26 41 -39 99
-39 60 0 78 -11 104 -64 27 -57 87 -111 157 -143 47 -22 66 -25 123 -21 114 8
202 71 255 181 l20 42 60 0 60 0 11 -110 c7 -60 12 -111 13 -112 1 -2 75 -3
165 -3 l163 0 9 113 9 112 60 0 60 0 25 -52 c33 -68 69 -104 138 -139 79 -39
184 -40 256 -4 50 26 146 121 146 146 0 8 9 23 20 34 23 23 98 28 118 8 7 -7
12 -45 12 -99 0 -48 3 -94 6 -103 5 -14 29 -16 165 -16 l159 0 10 26 c6 14 10
57 10 95 0 117 -20 109 278 109 186 0 264 4 282 13 29 14 37 53 18 80 -12 16
-41 19 -287 26 -218 6 -275 10 -282 22 -5 8 -9 53 -9 102 0 85 -1 88 -26 97
-38 15 -287 13 -307 -2 -13 -10 -17 -33 -19 -108 l-3 -95 -37 -9 c-40 -10 -98
7 -98 29 0 7 -20 39 -44 72 -128 175 -390 157 -498 -33 -16 -30 -38 -59 -48
-64 -22 -12 -80 -13 -96 -2 -6 4 -14 54 -18 112 -4 57 -8 105 -9 107 -6 5
-275 11 -292 6z"/>
<path d="M1257 2664 c-53 -16 -152 -103 -145 -126 4 -10 31 -13 108 -13 l104
0 17 69 c10 39 16 74 13 78 -7 12 -42 9 -97 -8z"/>
<path d="M1480 2638 c-11 -24 -20 -60 -20 -80 l0 -38 99 0 c69 0 102 4 110 13
19 23 40 121 29 135 -7 8 -41 12 -105 12 l-94 0 -19 -42z"/>
<path d="M1842 2667 c-12 -14 -31 -90 -32 -124 0 -22 3 -23 109 -23 l108 0 12
43 c7 24 11 59 9 78 l-3 34 -96 3 c-70 2 -99 -1 -107 -11z"/>
<path d="M2192 2663 c-9 -17 -32 -113 -32 -133 0 -6 45 -10 105 -10 121 0 117
-3 130 103 l7 57 -100 0 c-86 0 -103 -3 -110 -17z"/>
<path d="M2546 2672 c-6 -10 -36 -127 -36 -141 0 -7 36 -11 109 -11 124 0 114
-8 127 103 l7 57 -101 0 c-55 0 -103 -3 -106 -8z"/>
<path d="M2889 2659 c-6 -12 -14 -48 -16 -80 l-6 -59 106 0 c78 0 106 3 110
13 3 8 8 44 12 80 l7 67 -100 0 c-93 0 -102 -2 -113 -21z"/>
<path d="M3252 2668 c-8 -10 -42 -126 -42 -144 0 -2 49 -4 109 -4 124 0 114
-8 127 103 l7 57 -95 0 c-64 0 -99 -4 -106 -12z"/>
<path d="M3603 2672 c-13 -8 -32 -81 -33 -124 l0 -28 120 0 c66 0 120 2 120 5
0 10 -33 60 -59 87 -13 16 -49 37 -78 48 -62 23 -55 22 -70 12z"/>
<path d="M1122 2372 c-20 -13 0 -52 46 -94 43 -39 79 -55 92 -41 8 7 40 116
40 135 0 11 -161 10 -178 0z"/>
<path d="M1425 2368 c-2 -7 -9 -42 -14 -78 -8 -49 -8 -66 2 -72 14 -9 128 -9
172 1 32 7 45 33 60 119 l7 42 -111 0 c-80 0 -113 -4 -116 -12z"/>
<path d="M1765 2305 c-10 -42 -15 -79 -12 -82 11 -10 132 -15 167 -6 42 11 68
51 72 113 l3 45 -107 3 -106 3 -17 -76z"/>
<path d="M2122 2329 c-7 -28 -12 -63 -12 -79 0 -27 3 -29 56 -36 61 -7 141 -1
154 12 11 11 31 134 24 145 -3 5 -51 9 -108 9 l-103 0 -11 -51z"/>
<path d="M2480 2360 c-6 -10 -13 -46 -16 -79 l-7 -59 58 -7 c32 -4 79 -4 104
1 55 11 71 35 71 112 l0 52 -100 0 c-88 0 -100 -2 -110 -20z"/>
<path d="M2837 2373 c-10 -17 -28 -125 -24 -138 13 -32 189 -29 207 4 5 9 12
45 16 79 l7 62 -101 0 c-56 0 -103 -3 -105 -7z"/>
<path d="M3179 2353 c-6 -16 -12 -50 -13 -77 -1 -46 1 -50 29 -58 39 -12 156
-2 171 14 6 7 16 43 21 81 l9 67 -103 0 -103 0 -11 -27z"/>
<path d="M3545 2372 c-5 -4 -12 -14 -14 -22 -28 -112 -27 -118 6 -131 39 -14
154 13 199 47 36 28 64 71 64 99 0 13 -18 15 -122 15 -68 0 -127 -4 -133 -8z"/>
<path d="M1155 2088 c10 -52 80 -193 135 -272 67 -97 252 -280 326 -322 130
-75 199 -106 286 -129 50 -13 93 -26 95 -29 13 -12 -12 -26 -48 -26 -57 0 -77
-14 -84 -58 -4 -20 -17 -68 -30 -107 -42 -124 -85 -277 -85 -301 0 -25 35 -64
57 -64 19 0 60 68 74 123 6 26 15 49 18 52 4 2 257 5 561 6 532 1 555 1 562
-17 4 -11 17 -45 29 -77 22 -62 47 -82 86 -72 25 6 26 8 19 68 -3 33 -11 66
-16 71 -6 6 -10 18 -10 29 0 19 -20 96 -66 253 -26 90 -32 94 -126 94 -67 0
-39 23 63 51 118 34 249 94 337 156 85 59 255 231 289 292 14 25 41 72 59 103
44 72 88 188 76 200 -5 5 -25 1 -48 -9 -36 -16 -121 -17 -1234 -18 -1109 0
-1199 1 -1256 18 -79 22 -77 23 -69 -15z m1791 -894 c17 -5 23 -16 28 -56 4
-28 4 -53 1 -57 -7 -6 -1034 -6 -1040 1 -7 7 18 82 33 101 14 16 50 17 486 17
259 0 481 -3 492 -6z"/>
</g>
</svg>
